<?xml version="1.0" encoding="UTF-8"?>
<svg id="Layer_2" data-name="Layer 2" xmlns="http://www.w3.org/2000/svg" viewBox="0 0 60.74 94.15">
  <defs>
    <style>
      .cls-1 {
        fill: #039749;
      }

      .cls-1, .cls-2, .cls-3 {
        fill-rule: evenodd;
        stroke-width: 0px;
      }

      .cls-2 {
        fill: #0071b8;
      }

      .cls-3 {
        fill: #c00;
      }
    </style>
  </defs>
  <g id="Layer_1-2" data-name="Layer 1">
    <g>
      <path class="cls-3" d="m30.22,62.37l.05-5.83c13.75,0,24.9-11.39,24.9-25.43S44.02,5.68,30.27,5.68c-11.6,0-21.35,8.11-24.11,19.08l-.08.34-3.69,3.24-1.77-4.35.15-.65C4.15,9.92,16.08,0,30.27,0c16.82,0,30.47,13.94,30.47,31.11s-13.7,31.26-30.52,31.26Z"/>
      <g>
        <polygon class="cls-2" points="34.79 9.1 32.91 8.93 30.57 8.85 30.57 6.89 32.51 6.99 34.24 7.26 34.79 9.1"/>
        <path class="cls-2" d="m40.5,9.76l-2.25-.34-2.48-.23-.15-.63-.35-1.11,1.89.49c.74.23,1.47.49,2.18.79l.94.45.22.58Z"/>
        <polygon class="cls-2" points="35.61 12.37 33.42 12.14 30.57 12.04 30.57 9.82 32.13 9.87 35.08 10.15 35.61 12.37"/>
        <polygon class="cls-2" points="41.57 13.2 38.74 12.7 36.59 12.48 36.03 10.24 37.51 10.37 40.88 10.87 41.39 12.51 41.57 13.2"/>
        <polygon class="cls-2" points="46.12 14.13 44.15 13.65 42.53 13.37 41.77 11.01 43.01 11.19 44.03 11.4 45.22 12.29 45.81 12.82 46.12 14.13"/>
        <polygon class="cls-2" points="36.43 16.23 33.77 15.97 30.57 15.87 30.57 12.93 32.31 13 35.84 13.37 36.21 14.9 36.43 16.23"/>
        <polygon class="cls-2" points="42.49 17.03 39.07 16.49 37.38 16.32 36.95 13.92 36.84 13.48 37.68 13.57 41.87 14.29 42.04 14.96 42.49 17.03"/>
        <polygon class="cls-2" points="46.91 17.88 44.45 17.34 43.45 17.18 42.82 14.46 43.17 14.52 46.4 15.29 46.7 16.55 46.91 17.88"/>
        <polygon class="cls-2" points="50.1 18.6 49.9 18.54 47.71 18.06 47.63 17.6 47.13 15.46 48.69 15.83 49.81 17.33 49.95 17.55 50.1 18.6"/>
        <polygon class="cls-2" points="37.28 22.01 37.08 22 35.73 21.93 35.42 21.92 35.08 21.91 30.64 21.83 30.57 21.83 30.57 16.98 33.41 17.07 33.73 17.09 36.63 17.37 37.07 19.96 37.28 22.01"/>
        <polygon class="cls-2" points="43.32 22.4 42.28 22.31 40.95 22.2 40.34 22.17 39.64 22.12 38.2 22.05 37.91 19.3 37.58 17.46 38.64 17.56 39.14 17.63 42.71 18.19 43.01 19.92 43.32 22.4"/>
        <polygon class="cls-2" points="47.5 22.81 47.31 22.79 46.17 22.65 45.28 22.58 44.31 22.48 44.28 22.13 43.69 18.34 43.96 18.38 44.56 18.5 47.09 19.04 47.29 20.3 47.5 22.81"/>
        <polygon class="cls-2" points="50.61 23.19 50.26 23.15 48.78 22.95 48.36 22.91 48.14 20.76 47.89 19.21 49.39 19.53 50.01 19.68 50.26 19.75 50.49 21.36 50.61 23.19"/>
        <polygon class="cls-2" points="52.75 23.49 52.28 23.43 51.46 23.3 51.39 22.32 51.06 19.97 51.36 20.05 52.23 21.89 52.75 23.49"/>
        <path class="cls-2" d="m51.56,30.27v-.21c.09-1.74.09-3.47,0-5.18l-.03-.58,1.57.27.03.09c.25.95.43,1.92.56,2.9l.17,2.71h-2.3Z"/>
        <path class="cls-2" d="m51.56,31.29v.21c.09,1.74.09,3.47,0,5.18l-.03.58,1.57-.27.03-.09c.25-.94.43-1.92.56-2.9l.17-2.71h-2.3Z"/>
        <path class="cls-2" d="m48.59,30.27l.03-3.1-.15-3.19,2.2.22.06,2.29c0,.86-.02,1.73-.06,2.6l-.08,1.18h-2Z"/>
        <path class="cls-2" d="m44.62,30.27v-3.93s-.23-2.78-.23-2.78l3.21.33v.23c.08,1.28.1,2.57.08,3.87l-.11,2.28h-2.95Z"/>
        <path class="cls-2" d="m38.65,30.27v-.15c0-1.81-.05-3.62-.17-5.42l-.17-1.58,2.64.09,2.46.25.12,1.49c.09,1.68.11,3.39.05,5.1v.22h-4.93Z"/>
        <path class="cls-2" d="m48.59,31.28l.03,3.1-.15,3.19,2.2-.23.06-2.28c0-.86-.02-1.73-.06-2.6l-.08-1.18h-2Z"/>
        <path class="cls-2" d="m44.62,31.28v3.92s-.23,2.78-.23,2.78l3.21-.32v-.23c.08-1.28.1-2.57.08-3.87l-.11-2.28h-2.95Z"/>
        <path class="cls-2" d="m38.65,31.28v.15c0,1.81-.05,3.61-.17,5.41l-.17,1.59,2.64-.1,2.46-.24.12-1.49c.09-1.69.11-3.39.05-5.1v-.22h-4.93Z"/>
        <path class="cls-2" d="m30.57,30.27v-7.42l6.82.24.2,1.93c.11,1.69.17,3.38.18,5.07v.18h-7.2Z"/>
        <polygon class="cls-2" points="24.82 8.05 26.71 7.95 29.04 7.9 29.04 6.71 27.1 6.77 25.37 6.93 24.82 8.05"/>
        <path class="cls-2" d="m20.37,5.45l2.1-.34,2.31-.23.14-.63.33-1.1-1.76.48c-.69.23-1.37.5-2.04.8l-.88.45-.2.57Z"/>
        <polygon class="cls-2" points="24 11.22 26.19 10.99 29.04 10.89 29.04 8.66 27.48 8.71 24.53 8.99 24 11.22"/>
        <polygon class="cls-2" points="18.18 9.26 21.01 8.76 23.16 8.54 23.72 6.3 22.24 6.43 18.88 6.93 18.36 8.58 18.18 9.26"/>
        <polygon class="cls-2" points="14.4 7.19 15.94 6.87 17.19 6.67 17.78 5.08 16.81 5.2 16.03 5.34 15.1 5.94 14.64 6.31 14.4 7.19"/>
        <polygon class="cls-2" points="23.52 15.91 26.19 15.66 29.38 15.55 29.38 12.62 27.65 12.68 24.11 13.06 23.74 14.59 23.52 15.91"/>
        <polygon class="cls-2" points="16.57 13.93 19.99 13.36 21.69 13.19 22.11 10.71 22.22 10.26 21.39 10.35 17.2 11.1 17.02 11.79 16.57 13.93"/>
        <polygon class="cls-2" points="12.38 11.75 14.98 11.18 16.03 11.01 16.7 8.15 16.33 8.21 12.92 9.02 12.6 10.35 12.38 11.75"/>
        <polygon class="cls-2" points="9.38 12.67 10.6 12.67 11.68 8.67 11.18 8.75 9.94 11.39 9.99 10.81 9.94 11.39 9.99 11.91 9.99 11.88 9.98 11.6 9.94 11.39 9.64 12.08 9.38 12.67"/>
        <polygon class="cls-2" points="22.16 21.92 22.36 21.91 23.71 21.84 24.02 21.84 24.36 21.82 28.8 21.75 28.87 21.75 28.87 16.89 26.03 16.98 25.71 17.01 22.81 17.29 22.37 19.87 22.16 21.92"/>
        <polygon class="cls-2" points="14.4 20.43 15.49 20.33 16.89 20.2 17.52 20.16 18.25 20.1 19.76 20.02 20.06 16.83 20.4 14.69 19.3 14.8 18.77 14.88 15.04 15.53 14.73 17.54 14.4 20.43"/>
        <polygon class="cls-2" points="9.11 17.6 9.3 17.57 10.35 17.44 11.18 17.36 12.08 17.26 12.1 16.91 12.65 13.11 12.4 13.16 11.85 13.27 9.5 13.81 9.31 15.08 9.11 17.6"/>
        <polygon class="cls-2" points="10.19 22.95 10.51 22.9 11.84 22.66 12.22 22.6 12.43 20.03 12.65 18.17 11.3 18.56 10.73 18.74 10.51 18.82 10.3 20.76 10.19 22.95"/>
        <polygon class="cls-2" points="7.6 24.43 8.01 24.35 8.75 24.19 8.8 22.99 9.1 20.1 8.83 20.2 8.06 22.46 7.6 24.43"/>
        <path class="cls-2" d="m29.37,30.67v-6.61l-6.32.2-.18,1.73c-.11,1.5-.16,3.01-.17,4.52v.16h6.67Z"/>
        <polygon class="cls-2" points="35.06 52.52 33.17 52.69 30.84 52.76 30.84 54.72 32.78 54.62 34.51 54.36 35.06 52.52"/>
        <path class="cls-2" d="m42.37,50.26l-2.25.34-2.48.23-.15.63-.35,1.11,1.89-.49c.74-.23,1.47-.5,2.19-.8l.93-.45.22-.57Z"/>
        <polygon class="cls-2" points="35.88 49.24 33.69 49.47 30.84 49.57 30.84 51.79 32.4 51.74 35.35 51.47 35.88 49.24"/>
        <polygon class="cls-2" points="36.43 45.38 33.77 45.64 30.57 45.75 30.57 48.68 32.31 48.62 35.84 48.24 36.21 46.71 36.43 45.38"/>
        <polygon class="cls-2" points="37.28 39.28 37.08 39.29 35.73 39.36 35.42 39.36 35.08 39.38 30.64 39.45 30.57 39.45 30.57 44.31 33.41 44.21 33.73 44.19 36.63 43.91 37.07 41.33 37.28 39.28"/>
        <path class="cls-2" d="m30.57,31.34v6.63l6.82-.21.2-1.73c.11-1.51.17-3.02.18-4.53v-.16h-7.2Z"/>
        <polygon class="cls-2" points="25.32 51.98 27.2 52.12 29.54 52.18 29.54 53.74 27.6 53.66 25.87 53.45 25.32 51.98"/>
        <polygon class="cls-2" points="24.07 49.17 26.5 49.35 29.64 49.43 29.63 51.42 28.01 51.28 24.76 51.18 24.07 49.17"/>
        <polygon class="cls-2" points="9.81 43.12 10.98 43.62 11.28 44.87 10.88 44.45 9.81 43.12"/>
        <polygon class="cls-2" points="23.6 45.16 26.27 45.42 29.47 45.52 29.47 48.45 27.73 48.39 24.19 48.02 23.83 46.48 23.6 45.16"/>
        <polygon class="cls-2" points="18.51 44.66 21.02 45.11 22.26 45.22 22.74 47.97 22.85 48.48 22.24 48.42 19.16 47.79 18.98 47.03 18.51 44.66"/>
        <polygon class="cls-2" points="14.62 43.7 16.58 44.19 17.37 44.31 18.13 47.6 17.86 47.55 15.27 46.84 14.92 45.32 14.62 43.7"/>
        <polygon class="cls-2" points="22.76 39.09 22.96 39.1 24.31 39.17 24.62 39.17 24.96 39.19 29.39 39.26 29.47 39.26 29.47 44.12 26.63 44.03 26.31 44 23.41 43.72 22.97 41.14 22.76 39.09"/>
        <polygon class="cls-2" points="17.35 38.59 18.19 38.64 19.26 38.71 19.74 38.72 20.3 38.76 21.45 38.76 21.92 42.08 22.33 44.3 21.49 44.23 21.08 44.17 18.2 43.67 17.82 41.58 17.35 38.59"/>
        <polygon class="cls-2" points="12.97 37 13.14 37.02 14.16 37.12 14.95 37.16 15.82 37.23 15.88 37.69 16.85 42.68 16.61 42.65 16.07 42.54 13.78 41.99 13.46 40.32 12.97 37"/>
        <polygon class="cls-2" points="10.11 36.67 10.46 36.7 11.93 36.85 12.34 36.88 12.75 39.89 13.14 42.06 11.65 41.74 11.02 41.58 10.78 41.5 10.4 39.24 10.11 36.67"/>
        <polygon class="cls-2" points="7.53 36.14 8.15 36.23 9.26 36.39 9.35 37.69 9.78 40.81 9.38 40.7 8.23 38.26 7.53 36.14"/>
        <path class="cls-2" d="m21.32,31.73v.13c-.01,1.56.04,3.11.15,4.65l.16,1.36-2.38-.08-2.21-.21-.1-1.28c-.09-1.45-.11-2.91-.06-4.38l.02-.19h4.42Z"/>
        <path class="cls-2" d="m29.63,31.6v6.55l-6.81-.21-.2-1.7c-.12-1.49-.18-2.98-.18-4.47v-.17h7.19Z"/>
        <polygon class="cls-2" points="12.84 27.62 13.44 27.55 14.21 27.45 14.56 27.42 14.96 27.37 15.8 27.31 15.97 24.86 16.16 23.22 15.55 23.31 15.25 23.37 13.19 23.87 13.01 25.41 12.84 27.62"/>
        <polygon class="cls-2" points="9.75 27.89 10.21 27.84 10.8 27.76 11.06 27.74 11.37 27.7 12 27.66 12.13 25.8 12.27 24.56 11.81 24.62 11.59 24.67 10.02 25.04 9.89 26.21 9.75 27.89"/>
        <polygon class="cls-2" points="9.75 28.03 10.21 27.97 10.8 27.88 11.06 27.86 11.37 27.82 12 27.77 12.13 25.77 12.27 24.42 11.81 24.5 11.59 24.54 10.02 24.95 9.89 26.21 9.75 28.03"/>
        <polygon class="cls-2" points="7.07 28.82 7.48 28.77 8 28.7 8.24 28.68 8.51 28.65 9.08 28.61 9.19 26.9 9.32 25.75 8.91 25.82 8.71 25.86 7.31 26.2 7.19 27.28 7.07 28.82"/>
        <polygon class="cls-2" points="11.85 42.94 13.17 43.24 13.7 43.29 14.39 46.25 14.21 46.22 12.46 45.76 12.14 44.4 11.85 42.94"/>
        <polygon class="cls-2" points="12.84 27.89 13.44 27.82 14.21 27.72 14.56 27.69 14.96 27.64 15.8 27.58 15.97 25.13 16.16 23.49 15.55 23.58 15.25 23.64 13.19 24.13 13.01 25.68 12.84 27.89"/>
        <polygon class="cls-2" points="9.75 28.16 10.21 28.09 10.8 28 11.06 27.98 11.37 27.94 12 27.89 12.13 25.73 12.27 24.29 11.81 24.37 11.59 24.42 10.02 24.86 9.89 26.21 9.75 28.16"/>
        <path class="cls-2" d="m15.71,30.42v2.73l.21,1.94-3.08-.23-.02-.15c-.07-.89-.09-1.79-.07-2.7l.11-1.59h2.85Z"/>
        <polygon class="cls-2" points="12.82 31.38 13.41 31.44 14.16 31.53 14.5 31.55 14.89 31.59 15.7 31.64 15.86 33.71 16.05 35.09 15.45 35.02 15.17 34.97 13.17 34.55 13 33.25 12.82 31.38"/>
        <path class="cls-2" d="m11.79,30.83v2.26s.15,1.61.15,1.61l-2.08-.19-.02-.13c-.04-.74-.05-1.49-.04-2.24l.08-1.31h1.91Z"/>
        <polygon class="cls-2" points="9.85 31.62 10.24 31.67 10.75 31.74 10.98 31.76 11.24 31.8 11.79 31.84 11.9 33.55 12.03 34.7 11.63 34.63 11.43 34.6 10.08 34.25 9.97 33.17 9.85 31.62"/>
        <path class="cls-2" d="m8.96,30.96v1.95l.12,1.39-1.83-.17v-.11c-.05-.63-.06-1.28-.05-1.93l.07-1.13h1.69Z"/>
        <polygon class="cls-2" points="7.25 31.65 7.59 31.69 8.04 31.75 8.24 31.77 8.47 31.79 8.95 31.83 9.05 33.31 9.16 34.3 8.81 34.24 8.64 34.21 7.45 33.9 7.35 32.98 7.25 31.65"/>
        <path class="cls-2" d="m21.51,28.82v-3.05s.35-2.15.35-2.15l-5.09.25-.03.17c-.1,1-.14,2-.1,3.01l.17,1.77h4.7Z"/>
        <polygon class="cls-2" points="16.75 27.75 17.72 27.68 18.95 27.59 19.51 27.56 20.16 27.52 21.5 27.46 21.77 25.16 22.07 23.62 21.09 23.7 20.62 23.76 17.32 24.22 17.04 25.67 16.75 27.75"/>
        <g>
          <polygon class="cls-2" points="19.24 48.66 21.76 49.12 23 49.22 23.48 51.95 23.59 52.44 22.99 52.38 19.94 51.78 19.75 51.03 19.24 48.66"/>
          <polygon class="cls-2" points="15.29 47.69 17.29 48.19 18.09 48.31 18.92 51.59 18.65 51.54 16.07 50.84 15.66 49.33 15.29 47.69"/>
          <polygon class="cls-2" points="12.45 46.91 13.8 47.22 14.34 47.27 15.17 50.25 14.98 50.23 13.22 49.77 12.82 48.4 12.45 46.91"/>
        </g>
      </g>
      <g>
        <path class="cls-1" d="m58.94,55.75l.06,17.94s-1.1,6.92-8,6.92h-11.04s-9.38,1.03-9.38,13.42c0,.02-.41.01-.4,0,.01,1.84-.03-18.98-.03-18.98,0,0,.12-11.68,9.8-11.68h11.06s7.93-.87,7.93-7.62Z"/>
        <path class="cls-1" d="m58.94,27.37l.06,17.94s-1.1,6.92-8,6.92h-11.04s-9.78.46-9.69,13.5c.01,1.84,0-19.07,0-19.07,0,0,0-11.67,9.68-11.67h11.06s7.93-.87,7.93-7.62Z"/>
        <path class="cls-1" d="m1.79,41.91l-.06,17.93s1.1,6.93,8,6.93h11.05s9.78.46,9.68,13.5c-.01,1.84,0-19.08,0-19.08,0,0,0-11.67-9.68-11.67h-11.06c.05,0-7.93-.86-7.93-7.61Z"/>
      </g>
      <path class="cls-3" d="m29.36,62.31C13.6,61.78,1.05,50.03.03,35.51l-.03-.69,2.92,2.87,2.64-2.84.02.32c.83,11.86,9.62,20.73,22.09,21.16h2.5s0,6.02,0,6.02l-.81-.04Z"/>
    </g>
  </g>
</svg>